<svg enable-background="new 0 0 512 512" viewBox="0 0 512 512" xmlns="http://www.w3.org/2000/svg"><path d="m12.51 470.379 221.861-454.371c6.439-13.187 25.17-13.363 31.855-.299l232.51 454.371c6.064 11.849-2.542 25.92-15.853 25.92h-454.371c-13.164 0-21.778-13.791-16.002-25.621z" fill="#ffb636"/><path d="m284.332 173-12.182 163.498c-.911 12.233-11.567 21.411-23.8 20.499-11.116-.828-19.706-9.707-20.499-20.499l-12.183-163.498c-1.413-18.961 12.813-35.478 31.774-36.89s35.478 12.813 36.89 31.774c.124 1.662.109 3.5 0 5.116zm-34.332 218.873c-17.432 0-31.564 14.131-31.564 31.564 0 17.432 14.132 31.563 31.564 31.563s31.564-14.131 31.564-31.564c0-17.432-14.132-31.563-31.564-31.563z" fill="#2b3b47"/></svg>